<svg width="8" height="9" viewBox="2 0 7 9" fill="none" xmlns="http://www.w3.org/2000/svg">
<path d="M1.39087 4C1.11473 4 0.890869 4.22386 0.890869 4.5C0.890869 4.77614 1.11473 5 1.39087 5V4ZM6.60914 4.5L6.96411 4.85213C7.15748 4.65719 7.15748 4.34281 6.96411 4.14787L6.60914 4.5ZM2.99622 0.147874C2.80174 -0.0481733 2.48516 -0.0494489 2.28912 0.145025C2.09307 0.339499 2.09179 0.656079 2.28627 0.852126L2.99622 0.147874ZM2.28627 8.14787C2.09179 8.34392 2.09307 8.6605 2.28912 8.85498C2.48516 9.04945 2.80174 9.04817 2.99622 8.85213L2.28627 8.14787ZM1.39087 5H6.60914V4H1.39087V5ZM6.96411 4.14787C6.18933 3.36683 5.58475 2.75735 4.98017 2.14787C4.37558 1.5384 3.771 0.928923 2.99622 0.147874L2.28627 0.852126C3.06105 1.63317 3.66563 2.24265 4.27022 2.85213C4.8748 3.4616 5.47938 4.07108 6.25416 4.85213L6.96411 4.14787ZM6.25416 4.14787C5.47938 4.92892 4.8748 5.5384 4.27022 6.14787C3.66563 6.75735 3.06105 7.36683 2.28627 8.14787L2.99622 8.85213C3.771 8.07108 4.37558 7.4616 4.98017 6.85213C5.58475 6.24265 6.18933 5.63317 6.96411 4.85213L6.25416 4.14787Z" fill="white" fill-opacity="0.64"/>
</svg>
